# xmcd CD database file
#
# Track frame offsets:
#	150
#	17058
#	37644
#	50320
#	66974
#	79724
#	97661
#	113261
#	123161
#	143293
#
# Disc length: 2176 seconds
#
# Revision: 1
# Processed by: cddbd v1.5.2PL0 Copyright (c) Steve Scherf et al.
# Submitted via: CDex 1.70beta2
#
DISCID=61087e0a
DTITLE=Solly - Six Strings
DYEAR=1900
DGENRE=Blues
TTITLE0=come on over
TTITLE1=girl in the middle
TTITLE2=six strings
TTITLE3=I promise I won't call
TTITLE4=Spanish vacation
TTITLE5=I count on you
TTITLE6=walking blues
TTITLE7=miles
TTITLE8=strange feeling
TTITLE9=what is love
EXTD=
EXTT0=
EXTT1=
EXTT2=
EXTT3=
EXTT4=
EXTT5=
EXTT6=
EXTT7=
EXTT8=
EXTT9=
PLAYORDER=
